<?xml version="1.0" encoding="utf-8"?>
<!-- Generator: Adobe Illustrator 25.2.1, SVG Export Plug-In . SVG Version: 6.00 Build 0)  -->
<svg version="1.1" id="Layer_1" xmlns="http://www.w3.org/2000/svg" xmlns:xlink="http://www.w3.org/1999/xlink" x="0px" y="0px"
	 viewBox="0 0 804.4 199.5" style="enable-background:new 0 0 804.4 199.5;" xml:space="preserve">
<style type="text/css">
	.st0{fill:#F6F7F8;}
</style>
<g>
	<rect x="11.2" y="53.4" class="st0" width="34.2" height="34"/>
	<rect x="11.2" y="121.4" class="st0" width="34.2" height="58.9"/>
	<path class="st0" d="M93.6,153.7h-7.3l-30.8-32.2H45.4V87.3h24.7l30.2,31.5c5.7-1.2,10.6-4.1,14.6-8.4c5.6-6.1,8.6-14.6,8.6-24
		s-3.1-17.9-8.6-24c-5.4-6-12.8-9.1-21.2-9.1H45.4V19.2h48.3c18.1,0,34.6,7.2,46.5,20.3c11.3,12.4,17.5,29.1,17.5,47
		s-6.2,34.6-17.5,47C128.2,146.5,111.7,153.7,93.6,153.7z"/>
</g>
<g>
	<path class="st0" d="M220.4,64.8h22.8c11.4,0,17.7,7.8,17.7,17.1c0,9.3-6.5,17.1-17.7,17.1h-15.7v22.5h-7V64.8z M242.3,71.1h-14.9
		v21.6h14.9c6.7,0,11.3-4.4,11.3-10.8C253.6,75.5,249,71.1,242.3,71.1z"/>
	<path class="st0" d="M270,80.4h6.4V87c3.3-4.3,8.1-7.5,13.7-7.5v6.5c-0.8-0.2-1.5-0.3-2.5-0.3c-3.9,0-9.3,3.2-11.1,6.5v29H270V80.4
		z"/>
	<path class="st0" d="M295.6,100.9c0-11.9,7.8-21.5,20.3-21.5c12.5,0,20.3,9.6,20.3,21.5c0,11.9-7.8,21.6-20.3,21.6
		C303.5,122.4,295.6,112.8,295.6,100.9z M329.5,100.9c0-8.3-4.8-15.8-13.6-15.8s-13.7,7.5-13.7,15.8c0,8.4,4.9,15.9,13.7,15.9
		S329.5,109.3,329.5,100.9z"/>
	<path class="st0" d="M353,125.4c0,8.1-4.3,12.7-12.1,12.7c-1.8,0-3.2-0.2-4.6-0.6l0.8-5.3c0.8,0.3,2,0.4,3.1,0.4
		c3.7,0,6.4-2,6.4-7.1v-45h6.4V125.4z M345.5,69.2c0-2.4,2-4.2,4.2-4.2c2.4,0,4.3,1.9,4.3,4.2c0,2.4-2,4.3-4.3,4.3
		C347.4,73.5,345.5,71.6,345.5,69.2z"/>
	<path class="st0" d="M383.5,79.4c12.4,0,19.7,9.7,19.7,22v1.6H370c0.5,7.7,5.9,14.2,14.8,14.2c4.7,0,9.4-1.9,12.6-5.2l3.1,4.2
		c-4.1,4.1-9.6,6.3-16.3,6.3c-12.1,0-20.9-8.7-20.9-21.6C363.3,89,371.8,79.4,383.5,79.4z M370,98.3h26.9
		c-0.1-6.1-4.2-13.7-13.5-13.7C374.7,84.7,370.4,92,370,98.3z"/>
	<path class="st0" d="M431.6,79.4c7.5,0,11.9,3.1,15,7.1l-4.2,3.9c-2.7-3.7-6.2-5.3-10.4-5.3c-8.7,0-14.2,6.7-14.2,15.8
		c0,9.1,5.4,15.9,14.2,15.9c4.2,0,7.7-1.7,10.4-5.3l4.2,3.9c-3.1,4.1-7.6,7.1-15,7.1c-12.2,0-20.5-9.3-20.5-21.6
		C411.1,88.7,419.3,79.4,431.6,79.4z"/>
	<path class="st0" d="M456.8,112.8V86H450v-5.6h6.8V69.2h6.4v11.2h8.3V86h-8.3v25.5c0,3.1,1.4,5.3,4.2,5.3c1.8,0,3.5-0.8,4.3-1.7
		l1.9,4.8c-1.6,1.5-3.9,2.6-7.6,2.6C459.8,122.4,456.8,119,456.8,112.8z"/>
	<path class="st0" d="M501.6,64.8h26.5c12.3,0,19,8.3,19,18.3c0,9.8-6.8,18.1-19,18.1h-14.4v20.3h-12.1V64.8z M526.5,75.1h-12.8
		v15.6h12.8c4.8,0,8.3-3.1,8.3-7.8C534.8,78.3,531.2,75.1,526.5,75.1z"/>
	<path class="st0" d="M577.3,117.2c-2.8,3.3-7.6,5.3-13,5.3c-6.5,0-14.3-4.4-14.3-13.6c0-9.6,7.7-13.1,14.3-13.1
		c5.4,0,10.3,1.7,13,5v-5.7c0-4.2-3.6-6.9-9-6.9c-4.4,0-8.5,1.6-12,4.8l-4.1-7.2c5-4.4,11.5-6.5,17.9-6.5c9.3,0,17.9,3.7,17.9,15.5
		v26.5h-10.8V117.2z M577.3,106.5c-1.8-2.4-5.2-3.6-8.7-3.6c-4.2,0-7.7,2.3-7.7,6.2c0,3.8,3.5,6,7.7,6c3.5,0,6.9-1.2,8.7-3.6V106.5z
		"/>
	<path class="st0" d="M599.9,108.5c3,2.8,9.1,5.6,14.2,5.6c4.7,0,6.9-1.6,6.9-4.2c0-2.9-3.6-3.9-8.2-4.8c-7-1.4-16.1-3.1-16.1-12.8
		c0-6.9,6-12.9,16.8-12.9c7,0,12.5,2.4,16.5,5.6l-4.2,7.4c-2.5-2.6-7.1-4.8-12.1-4.8c-3.9,0-6.5,1.4-6.5,3.8c0,2.5,3.2,3.5,7.8,4.4
		c7,1.4,16.5,3.2,16.5,13.4c0,7.6-6.4,13.2-17.7,13.2c-7.1,0-14-2.4-18.3-6.4L599.9,108.5z"/>
	<path class="st0" d="M640.4,108.5c3,2.8,9.1,5.6,14.2,5.6c4.7,0,6.9-1.6,6.9-4.2c0-2.9-3.6-3.9-8.2-4.8c-7-1.4-16.1-3.1-16.1-12.8
		c0-6.9,6-12.9,16.8-12.9c7,0,12.5,2.4,16.5,5.6l-4.2,7.4c-2.5-2.6-7.1-4.8-12.1-4.8c-3.9,0-6.5,1.4-6.5,3.8c0,2.5,3.2,3.5,7.8,4.4
		c7,1.4,16.5,3.2,16.5,13.4c0,7.6-6.4,13.2-17.7,13.2c-7.1,0-14-2.4-18.3-6.4L640.4,108.5z"/>
	<path class="st0" d="M678.6,67.9c0-3.6,3-6.5,6.5-6.5c3.6,0,6.5,2.9,6.5,6.5s-2.9,6.5-6.5,6.5C681.6,74.4,678.6,71.5,678.6,67.9z
		 M679.7,80.4h10.8v41h-10.8V80.4z"/>
	<path class="st0" d="M695.4,80.4h11.5l10.7,28.5l10.7-28.5h11.6l-16.5,41h-11.6L695.4,80.4z"/>
	<path class="st0" d="M763.4,79.4c12.2,0,20.5,9.2,20.5,22.6v2.4h-30.5c0.7,5.2,4.8,9.5,11.8,9.5c3.8,0,8.3-1.5,11-4.1l4.8,7
		c-4.2,3.8-10.5,5.7-16.9,5.7c-12.5,0-21.9-8.4-21.9-21.6C742.1,89,750.9,79.4,763.4,79.4z M753.3,97.1h20.2
		c-0.3-3.9-3-9.1-10.1-9.1C756.7,88,753.8,93,753.3,97.1z"/>
</g>
</svg>
