<?xml version="1.0" encoding="utf-8"?>
<!-- Generator: Adobe Illustrator 25.2.1, SVG Export Plug-In . SVG Version: 6.00 Build 0)  -->
<svg version="1.1" id="Layer_1" xmlns="http://www.w3.org/2000/svg" xmlns:xlink="http://www.w3.org/1999/xlink" x="0px" y="0px"
	 viewBox="0 0 167 199.5" style="enable-background:new 0 0 167 199.5;" xml:space="preserve">
<style type="text/css">
	.st0{fill:#F6F7F8;}
</style>
<g>
	<rect x="10.3" y="53.4" class="st0" width="34.2" height="34"/>
	<rect x="10.3" y="121.4" class="st0" width="34.2" height="58.9"/>
	<path class="st0" d="M92.7,153.7h-7.3l-30.8-32.2H44.4V87.3h24.7l30.2,31.5c5.7-1.2,10.6-4.1,14.6-8.4c5.6-6.1,8.6-14.6,8.6-24
		s-3.1-17.9-8.6-24c-5.4-6-12.8-9.1-21.2-9.1H44.4V19.2h48.3c18.1,0,34.6,7.2,46.5,20.3c11.3,12.4,17.5,29.1,17.5,47
		s-6.2,34.6-17.5,47C127.2,146.5,110.7,153.7,92.7,153.7z"/>
</g>
</svg>
