<?xml version="1.0" encoding="utf-8"?>
<!-- Generator: Adobe Illustrator 25.2.1, SVG Export Plug-In . SVG Version: 6.00 Build 0)  -->
<svg version="1.1" id="Layer_1" xmlns="http://www.w3.org/2000/svg" xmlns:xlink="http://www.w3.org/1999/xlink" x="0px" y="0px"
	 viewBox="0 0 141 40" style="enable-background:new 0 0 141 40;" xml:space="preserve">
<style type="text/css">
	.st0{fill:#9BA6B2;}
</style>
<path class="st0" d="M48.4,22.2c-1.2-0.7-1.8-1.2-1.8-1.9c0-1,0.8-1.6,2.2-1.6c1.6,0,2.9,0.7,2.9,0.7l1.1-3.4c0,0-1-0.8-4-0.8
	c-4.1,0-7,2.4-7,5.7c0,1.9,1.3,3.3,3.1,4.4c1.4,0.8,1.9,1.4,1.9,2.3c0,0.9-0.7,1.6-2.1,1.6c-2,0-3.9-1-3.9-1l-1.2,3.4
	c0,0,1.8,1.2,4.7,1.2c4.3,0,7.3-2.1,7.3-5.9C51.8,24.8,50.3,23.3,48.4,22.2z"/>
<path class="st0" d="M65.4,15.2c-2.1,0-3.7,1-5,2.5l-0.1,0l1.8-9.5h-4.7l-4.6,24.3h4.7l1.6-8.3c0.6-3.1,2.2-5.1,3.7-5.1
	c1.1,0,1.5,0.7,1.5,1.8c0,0.7-0.1,1.4-0.2,2.1l-1.8,9.5H67l1.9-9.8c0.2-1,0.3-2.3,0.3-3.1C69.3,16.8,67.9,15.2,65.4,15.2z"/>
<path class="st0" d="M80,15.2c-5.7,0-9.5,5.1-9.5,10.9c0,3.7,2.3,6.7,6.5,6.7c5.6,0,9.4-5,9.4-10.9C86.4,18.4,84.5,15.2,80,15.2z
	 M77.7,29.1c-1.6,0-2.3-1.4-2.3-3.1c0-2.7,1.4-7.2,4-7.2c1.7,0,2.2,1.4,2.2,2.9C81.6,24.6,80.2,29.1,77.7,29.1z"/>
<path class="st0" d="M98.6,15.2c-3.2,0-5,2.8-5,2.8h-0.1l0.3-2.5h-4.2c-0.2,1.7-0.6,4.3-1,6.3l-3.3,17.4H90l1.3-7h0.1
	c0,0,1,0.6,2.8,0.6c5.6,0,9.2-5.7,9.2-11.5C103.5,18,102.1,15.2,98.6,15.2z M94.1,29.1c-1.2,0-1.9-0.7-1.9-0.7l0.8-4.4
	c0.6-2.9,2.1-4.9,3.7-4.9c1.4,0,1.9,1.3,1.9,2.6C98.5,24.8,96.7,29.1,94.1,29.1z"/>
<path class="st0" d="M110.2,8.3c-1.5,0-2.7,1.2-2.7,2.8c0,1.4,0.9,2.4,2.2,2.4h0.1c1.5,0,2.8-1,2.8-2.8
	C112.6,9.3,111.7,8.3,110.2,8.3z"/>
<path class="st0" d="M103.6,32.4h4.8l3.2-16.8h-4.8L103.6,32.4z"/>
<path class="st0" d="M123.6,15.5h-3.3l0.2-0.8c0.3-1.6,1.2-3.1,2.8-3.1c0.8,0,1.5,0.3,1.5,0.3l0.9-3.7c0,0-0.8-0.4-2.6-0.4
	c-1.7,0-3.4,0.5-4.6,1.6c-1.6,1.4-2.4,3.4-2.8,5.4l-0.1,0.8h-2.2l-0.7,3.6h2.2l-2.5,13.3h4.7l2.5-13.3h3.3L123.6,15.5z"/>
<path class="st0" d="M135.1,15.6c0,0-3,7.5-4.3,11.5h-0.1c-0.1-1.3-1.2-11.5-1.2-11.5h-5l2.9,15.4c0.1,0.3,0,0.6-0.1,0.8
	c-0.6,1.1-1.5,2.1-2.6,2.9c-0.9,0.7-1.9,1.1-2.7,1.3l1.3,4c1-0.2,2.9-1,4.6-2.6c2.2-2,4.2-5.1,6.2-9.4l5.8-12.5H135.1z"/>
<path class="st0" d="M22.6,39l11.7-2.5c0,0-4.2-28.6-4.3-28.8c0-0.2-0.2-0.3-0.3-0.3c-0.2,0-3.1-0.2-3.1-0.2S24.5,5,24.3,4.8
	c-0.1-0.1-0.1-0.1-0.2-0.1L22.6,39z"/>
<path class="st0" d="M23.6,4.6c0,0-0.1,0-0.1,0c0,0-0.5,0.1-1.2,0.3c-0.7-2-1.9-3.9-4.1-3.9c-0.1,0-0.1,0-0.2,0
	C17.4,0.3,16.6,0,16,0c-5.1,0-7.5,6.3-8.2,9.5c-1.9,0.6-3.4,1-3.5,1.1C3.1,10.9,3.1,11,3,12c-0.1,0.8-3,22.9-3,22.9L22.1,39
	L23.6,4.6z M17.8,6.1c0,0.1,0,0.2,0,0.2c-1.2,0.4-2.6,0.8-3.9,1.2c0.8-2.9,2.2-4.3,3.4-4.8C17.6,3.5,17.8,4.6,17.8,6.1z M15.8,1.3
	c0.2,0,0.4,0.1,0.7,0.2c-1.6,0.8-3.4,2.7-4.1,6.5C11.3,8.4,10.3,8.7,9.3,9C10.2,6.1,12.2,1.3,15.8,1.3z M16.7,18.4
	c0,0-1.3-0.7-2.9-0.7c-2.4,0-2.4,1.5-2.4,1.9c0,2,5.3,2.8,5.3,7.5c0,3.7-2.4,6.1-5.6,6.1c-3.8,0-5.8-2.4-5.8-2.4l1-3.4
	c0,0,2,1.7,3.7,1.7c1.1,0,1.6-0.9,1.6-1.5c0-2.6-4.3-2.8-4.3-7.1c0-3.6,2.6-7.2,7.9-7.2c2,0,3,0.6,3,0.6L16.7,18.4z M18.7,2.5
	c1.1,0.1,1.9,1.4,2.3,2.9c-0.6,0.2-1.2,0.4-1.9,0.6c0-0.1,0-0.3,0-0.4C19.1,4.3,19,3.3,18.7,2.5z"/>
</svg>
